<?xml version="1.0" standalone="no"?>
<!DOCTYPE svg PUBLIC "-//W3C//DTD SVG 20010904//EN"
 "http://www.w3.org/TR/2001/REC-SVG-20010904/DTD/svg10.dtd">
<svg version="1.0" xmlns="http://www.w3.org/2000/svg"
 width="700.000000pt" height="700.000000pt" viewBox="0 0 700.000000 700.000000"
 preserveAspectRatio="xMidYMid meet">
<metadata>
Created by potrace 1.14, written by Peter Selinger 2001-2017
</metadata>
<g transform="translate(0.000000,700.000000) scale(0.100000,-0.100000)"
fill="#000000" stroke="none">
<path d="M1157 5320 c-230 -324 -417 -592 -417 -595 0 -3 155 -5 345 -5 l345
0 0 -1815 0 -1815 473 2 472 3 0 2405 0 2405 -401 3 -401 2 -416 -590z"/>
<path d="M4402 5823 c-323 -573 -1264 -2266 -1296 -2332 -118 -236 -166 -449
-166 -731 0 -246 38 -443 125 -649 208 -492 660 -868 1180 -980 145 -32 323
-43 477 -31 228 19 391 63 593 160 349 169 610 428 781 775 102 209 144 360
165 598 19 214 -7 427 -81 648 -86 261 -225 477 -434 676 -229 219 -540 371
-854 418 -59 9 -128 19 -153 23 l-45 7 432 745 c238 410 433 748 434 753 0 4
-249 7 -554 7 l-555 0 -49 -87z m423 -2357 c221 -71 408 -257 482 -481 24 -71
27 -95 27 -225 1 -134 -1 -151 -27 -225 -42 -119 -99 -210 -191 -300 -140
-138 -283 -202 -472 -212 -175 -10 -301 25 -451 124 -357 235 -439 694 -187
1049 106 149 281 262 458 294 94 17 272 5 361 -24z"/>
</g>
</svg>
