<?xml version="1.0" standalone="no"?>
<!DOCTYPE svg PUBLIC "-//W3C//DTD SVG 20010904//EN"
 "http://www.w3.org/TR/2001/REC-SVG-20010904/DTD/svg10.dtd">
<svg version="1.0" xmlns="http://www.w3.org/2000/svg"
 width="700.000000pt" height="700.000000pt" viewBox="0 0 700.000000 700.000000"
 preserveAspectRatio="xMidYMid meet">
<metadata>
Created by potrace 1.14, written by Peter Selinger 2001-2017
</metadata>
<g transform="translate(0.000000,700.000000) scale(0.100000,-0.100000)"
fill="#000000" stroke="none">
<path d="M1306 5156 c-163 -293 -296 -536 -296 -540 0 -3 133 -6 295 -6 l295
0 0 -1650 0 -1650 430 0 430 0 0 2190 0 2190 -429 0 -429 0 -296 -534z"/>
<path d="M3735 4598 c-335 -601 -626 -1131 -646 -1178 -76 -177 -107 -316
-116 -526 -18 -444 132 -831 443 -1139 454 -451 1123 -569 1701 -300 577 269
931 880 873 1505 -45 490 -321 919 -745 1163 -162 93 -404 171 -570 183 -46 4
-88 10 -95 14 -7 4 128 246 380 680 214 370 390 677 390 681 0 5 -226 9 -502
9 l-503 0 -610 -1092z m889 -1113 c196 -41 373 -180 461 -360 48 -97 68 -183
69 -295 0 -118 -14 -181 -69 -295 -164 -343 -589 -484 -915 -303 -339 188
-455 569 -278 911 61 117 173 229 288 286 139 68 294 88 444 56z"/>
</g>
</svg>
