<svg xmlns="http://www.w3.org/2000/svg" width="" height="" viewBox="0 0 32 32" fill="none">
    <rect width="32" height="32" fill="#EAB308" />
    <path
        d="M20.4719 26C19.2104 26 18.0557 25.6893 17.0075 25.0678C15.9687 24.4464 15.1339 23.6116 14.5032 22.5635C13.8817 21.5154 13.571 20.3513 13.571 19.0713C13.571 18.4591 13.6452 17.8655 13.7936 17.2904C13.9513 16.7061 14.1878 16.1403 14.5032 15.593L19.8576 6H24.4953L20.8615 12.2678C21.5757 12.2957 22.262 12.4301 22.9206 12.6713C23.5791 12.9032 24.182 13.2278 24.7293 13.6452C25.2765 14.0626 25.7496 14.5542 26.1484 15.12C26.5565 15.6765 26.8672 16.2887 27.0806 16.9565C27.3032 17.6243 27.4145 18.3293 27.4145 19.0713C27.4145 20.0267 27.2336 20.9217 26.8719 21.7565C26.5101 22.5913 26.0093 23.3287 25.3693 23.9687C24.7386 24.5994 24.0012 25.0957 23.1571 25.4574C22.3223 25.8191 21.4273 26 20.4719 26ZM20.4719 22.16C21.0655 22.16 21.5942 22.0162 22.058 21.7287C22.531 21.4319 22.902 21.0516 23.171 20.5878C23.44 20.1148 23.5745 19.6186 23.5745 19.0991C23.5745 18.5333 23.44 18.0185 23.171 17.5548C22.902 17.0817 22.531 16.7061 22.058 16.4278C21.5942 16.1403 21.0748 15.9965 20.4997 15.9965C19.8875 15.9965 19.3496 16.1449 18.8858 16.4417C18.422 16.7385 18.0603 17.1235 17.8006 17.5965C17.5409 18.0603 17.411 18.5612 17.411 19.0991C17.411 19.6835 17.5548 20.2075 17.8423 20.6713C18.1391 21.1258 18.5194 21.4875 18.9832 21.7565C19.447 22.0255 19.9432 22.16 20.4719 22.16Z"
        fill="black"
    />
    <path d="M7.31635 26V10.9275H4.58551L7.31635 6H11.2522V26H7.31635Z" fill="black" />
</svg>