<svg xmlns="http://www.w3.org/2000/svg" viewBox="0 0 400 99" fill="none">
    <g>
        <path d="M72.1189 17.7269C75.5428 23.0525 77.3489 29.2567 77.3185 35.5879V68.0036C77.3191 68.1557 77.2722 68.3042 77.1845 68.4284C77.0967 68.5526 76.9725 68.6464 76.8289 68.6967L62.8345 73.6633C62.7233 73.7024 62.6043 73.7143 62.4875 73.698C62.3708 73.6816 62.2596 73.6375 62.1634 73.5693C62.0672 73.5012 61.9887 73.4109 61.9346 73.3061C61.8805 73.2014 61.8523 73.0852 61.8524 72.9672V64.1872C61.8535 64.0498 61.8161 63.9149 61.7443 63.7977C61.6726 63.6805 61.5694 63.5858 61.4465 63.5244C61.3236 63.463 61.1859 63.4372 61.0492 63.4501C60.9124 63.463 60.7819 63.514 60.6727 63.5973C57.8472 65.811 54.6847 67.5565 51.3057 68.7675C47.2616 70.2998 42.975 71.093 38.6503 71.1092C27.5944 71.1092 18.4516 67.687 11.2219 60.8427C3.99219 53.9984 0.256417 45.5801 0.0145751 35.5879C-0.178722 29.268 1.55448 23.0388 4.98413 17.7269C8.45054 12.259 13.1694 7.93332 19.1407 4.75005C25.1488 1.57194 31.8537 -0.0599529 38.6503 0.00168334C45.6657 0.00168334 52.1325 1.6002 58.0508 4.79724C63.7958 7.79475 68.6484 12.2547 72.1189 17.7269V17.7269ZM22.1343 20.5288C17.553 24.7168 15.3244 29.7365 15.4482 35.5879C15.6114 41.4865 17.9266 46.5062 22.3938 50.647C26.861 54.7878 32.2798 56.8592 38.6503 56.8611C45.0975 56.8611 50.6156 54.7671 55.2047 50.5792C59.7938 46.3912 62.0077 41.3941 61.8465 35.5879C61.7226 29.6893 59.4271 24.6588 54.9599 20.4963C50.4927 16.3339 45.0562 14.2517 38.6503 14.2497C32.1973 14.2497 26.6919 16.3427 22.1343 20.5288Z"/>
        <path d="M241.082 17.7277C244.506 23.0533 246.312 29.2575 246.282 35.5887V68.5264L230.798 74.0091V62.6013C227.941 65.1573 224.421 67.2169 220.239 68.78C216.2 70.3063 211.92 71.0954 207.602 71.11C196.544 71.11 187.401 67.6878 180.173 60.8435C172.946 53.9992 169.21 45.5809 168.966 35.5887C168.776 29.2676 170.513 23.0382 173.947 17.7277C177.414 12.2597 182.133 7.93412 188.104 4.75084C194.108 1.57464 200.809 -0.0571946 207.602 0.00248002C214.617 0.00248002 221.084 1.601 227.002 4.79803C232.751 7.79386 237.608 12.2539 241.082 17.7277V17.7277ZM191.086 20.5296C186.514 24.7176 184.29 29.7373 184.414 35.5887C184.576 41.4873 186.891 46.507 191.36 50.6478C195.829 54.7886 201.243 56.86 207.602 56.8619C214.049 56.8619 219.567 54.7679 224.156 50.5799C228.745 46.3919 230.959 41.3949 230.798 35.5887C230.674 29.6901 228.378 24.6596 223.911 20.4971C219.444 16.3347 214.008 14.2525 207.602 14.2505C201.156 14.2505 195.651 16.3435 191.086 20.5296Z"/>
        <path d="M84.107 98.5523C84.0207 98.5718 83.9311 98.5716 83.8449 98.5517C83.7587 98.5319 83.678 98.4929 83.6089 98.4377C83.5398 98.3825 83.484 98.3124 83.4457 98.2327C83.4073 98.153 83.3874 98.0657 83.3873 97.9772C83.4286 90.1468 83.4493 72.4393 83.4493 35.52C83.4353 29.1754 85.3123 22.9705 88.8406 17.6974C92.4368 12.2039 97.3198 7.87823 103.49 4.72052C109.66 1.56281 116.402 -0.0101444 123.716 0.00165278C131.032 0.00165278 137.816 1.57461 144.066 4.72052C150.317 7.86644 155.242 12.1921 158.842 17.6974C162.444 23.187 164.179 29.1279 164.048 35.52C163.794 45.5594 159.901 54.0003 152.368 60.8426C144.836 67.685 135.285 71.1072 123.716 71.1091C119.206 71.0965 114.735 70.2878 110.506 68.7202C106.574 67.2888 103.213 65.4691 100.422 63.2611C100.336 63.1925 100.231 63.1497 100.122 63.1376C100.012 63.1254 99.9005 63.1444 99.8009 63.1924C99.7012 63.2404 99.6171 63.3154 99.558 63.4089C99.499 63.5024 99.4674 63.6106 99.4669 63.7211V94.6297C99.4668 94.7636 99.4213 94.8934 99.3376 94.9979C99.254 95.1024 99.1374 95.1754 99.0068 95.2049L84.107 98.5523ZM123.716 56.8611C130.401 56.8611 136.07 54.7789 140.722 50.6145C145.374 46.4501 147.768 41.4186 147.903 35.52C148.072 29.7119 145.764 24.7148 140.978 20.5287C136.193 16.3427 130.438 14.2497 123.716 14.2497C117.08 14.2497 111.432 16.3211 106.772 20.4639C102.112 24.6066 99.6979 29.6253 99.5288 35.52C99.401 41.3734 101.72 46.3931 106.486 50.5791C111.252 54.7651 116.996 56.8591 123.716 56.8611V56.8611Z"/>
        <path d="M310.404 5.31111C316.326 8.63791 320.828 12.9488 323.909 18.2438C323.981 18.3683 324.026 18.5068 324.039 18.65C324.053 18.7932 324.036 18.9377 323.989 19.0737C323.942 19.2096 323.866 19.3339 323.767 19.438C323.668 19.5421 323.547 19.6237 323.414 19.6771L310.994 24.6231C310.781 24.7075 310.546 24.7163 310.328 24.6481C310.109 24.58 309.921 24.4389 309.794 24.2485C307.871 21.3228 305.203 18.9634 301.789 17.1702C298.141 15.2417 294.072 14.2438 289.945 14.2652C283.569 14.2652 278.168 16.3474 273.745 20.5118C269.321 24.6762 267.027 29.7067 266.864 35.6033C266.742 41.4095 268.955 46.4066 273.503 50.5945C278.051 54.7825 283.531 56.8765 289.945 56.8765C293.926 56.9262 297.851 55.9372 301.332 54.0069C304.479 52.256 307.19 49.8173 309.263 46.8725C309.387 46.6996 309.564 46.5714 309.767 46.5071C309.97 46.4428 310.188 46.4458 310.39 46.5157L323.145 50.8157C323.286 50.8637 323.414 50.9422 323.52 51.0457C323.627 51.1492 323.709 51.2751 323.761 51.4142C323.813 51.5533 323.833 51.7022 323.821 51.8502C323.808 51.9982 323.763 52.1415 323.688 52.2697C320.444 57.8472 315.809 62.4881 310.236 65.7392C304.188 69.3196 297.429 71.1098 289.96 71.1098C283.203 71.1668 276.538 69.5453 270.562 66.391C264.79 63.3993 259.923 58.919 256.465 53.4141C253.064 48.1028 251.346 41.8892 251.533 35.5856C251.634 30.7957 252.739 26.0802 254.778 21.7446C256.75 17.4865 259.52 13.646 262.938 10.4311C266.479 7.1632 270.6 4.58732 275.089 2.83665C279.812 0.943751 284.857 -0.0186477 289.945 0.00238438C297.111 -0.0422547 304.164 1.78786 310.404 5.31111V5.31111Z"/>
        <path d="M381.607 4.79801C387.217 7.81073 391.913 12.2766 395.204 17.7277C398.482 23.0977 400.144 29.2987 399.99 35.5886C399.987 36.5912 399.915 37.5923 399.775 38.5851C399.745 38.8365 399.625 39.0684 399.436 39.2377C399.248 39.407 399.005 39.5021 398.752 39.5053H342.24C342.079 39.5097 341.921 39.5505 341.778 39.6246C341.635 39.6988 341.51 39.8044 341.414 39.9335C341.317 40.0626 341.251 40.2119 341.221 40.3701C341.19 40.5284 341.196 40.6915 341.237 40.8472C342.293 45.1552 344.686 48.7602 348.416 51.6623C352.527 54.8593 357.363 56.5925 362.924 56.8619C371.591 57.3416 378.487 55.1267 383.613 50.2171C383.748 50.0839 383.918 49.9911 384.103 49.9494C384.288 49.9077 384.481 49.9187 384.66 49.9812L396.782 54.296C396.939 54.3563 397.08 54.4523 397.194 54.5763C397.307 54.7004 397.391 54.8492 397.438 55.0109C397.484 55.1727 397.493 55.3431 397.462 55.5088C397.432 55.6744 397.363 55.8306 397.262 55.9653C394.187 60.1199 389.994 63.6374 384.684 66.5179C378.87 69.6638 371.616 71.1945 362.924 71.1099C356.371 71.0757 349.931 69.4039 344.19 66.2466C338.606 63.2239 333.924 58.7733 330.623 53.3493C327.327 48.0249 325.673 41.8476 325.866 35.5886C325.965 30.8095 327.034 26.1004 329.01 21.7476C332.798 13.1324 339.822 6.35267 348.566 2.87212C353.121 0.998208 358.002 0.0459045 362.927 0.0702929C369.455 0.02678 375.886 1.65429 381.607 4.79801V4.79801ZM350.84 18.3648C347.498 20.6452 344.827 23.7786 343.104 27.4397C343.028 27.6027 342.994 27.7824 343.005 27.962C343.017 28.1416 343.073 28.3155 343.17 28.4675C343.266 28.6195 343.399 28.7447 343.557 28.8316C343.715 28.9184 343.892 28.9642 344.072 28.9645H384.645C384.82 28.9635 384.992 28.9196 385.146 28.8366C385.3 28.7536 385.432 28.6342 385.529 28.4886C385.626 28.3431 385.686 28.176 385.704 28.0018C385.722 27.8277 385.696 27.6519 385.63 27.4899C384.097 23.8799 381.519 20.854 377.897 18.412C373.864 15.6639 369.087 14.2121 364.207 14.2505C359.218 14.2505 354.761 15.6239 350.835 18.3707L350.84 18.3648Z"/>
    </g>
</svg>