<svg viewBox="0 0 887 183" fill="none" xmlns="http://www.w3.org/2000/svg">
    <path
        d="M296.354 37.8944H323.214C338.344 37.8944 348.398 40.4667 353.378 45.6116C358.358 50.7565 360.848 56.9694 360.848 64.25C360.848 69.1036 359.794 73.7149 357.687 78.0835C355.581 82.3547 352.229 85.5579 347.633 87.6939C354.432 89.4409 359.411 92.4987 362.571 96.8672C365.827 101.236 367.455 106.381 367.455 112.302C367.455 118.515 366.497 123.951 364.582 128.611C362.667 133.27 358.693 137.153 352.66 140.26C346.627 143.366 337.913 144.919 326.518 144.919H296.354V37.8944ZM325.8 83.3253C332.598 83.3253 337.434 81.6749 340.307 78.3747C343.18 74.9768 344.616 70.7056 344.616 65.5607C344.616 56.3385 338.104 51.7272 325.081 51.7272H312.154V83.3253H325.8ZM328.672 131.232C337.386 131.232 343.228 129.485 346.196 125.99C349.26 122.398 350.793 117.884 350.793 112.448C350.793 107.303 349.069 103.323 345.621 100.507C342.174 97.6925 336.955 96.2848 329.965 96.2848H312.154V131.232H328.672Z"
    />
    <path d="M427.848 37.7486L478.695 144.919H460.165L451.117 123.951H402.709L393.662 144.919H375.707L426.266 37.7486H427.848ZM420.663 83.3253L409.173 109.244H444.797L433.447 83.4708L427.272 68.7643H426.987L420.663 83.3253Z"/>
    <path d="M508.942 75.6078L509.371 87.2568V144.919H493.283V37.7486H495.297L557.346 107.934L556.774 95.7023V37.8944H572.862V144.919H570.707L508.942 75.6078Z"/>
    <path d="M625.427 97.0127L616.809 107.788V144.919H601.009V37.8944H616.809V85.6552L653.006 37.8944H672.254L635.912 84.9269L677.424 144.919H657.744L625.427 97.0127Z"/>
    <path d="M773.93 52.1642H724.805V37.8944H794.179L757.121 144.919H738.734L773.93 52.1642Z"/>
    <path
        d="M850.515 147.103C843.811 147.103 837.683 145.745 832.128 143.026C826.577 140.308 822.171 136.474 818.915 131.523C815.659 126.475 814.029 120.651 814.029 114.049C814.029 107.157 815.611 101.479 818.771 97.013C822.027 92.5472 826.144 89.247 831.126 87.111C827.39 84.8785 824.326 81.8692 821.931 78.0835C819.636 74.2004 818.487 69.8804 818.487 65.1237C818.487 59.299 819.873 54.2029 822.648 49.8343C825.427 45.4662 829.256 42.1168 834.142 39.7873C839.024 37.3604 844.483 36.1469 850.515 36.1469C856.55 36.1469 862.005 37.3604 866.891 39.7873C871.773 42.1168 875.606 45.4662 878.381 49.8343C881.157 54.1056 882.547 59.105 882.547 64.8328C882.547 70.0747 881.301 74.5886 878.814 78.3747C876.419 82.0634 873.259 85.0239 869.334 87.2568C874.408 89.4894 878.622 92.8384 881.974 97.3043C885.326 101.672 887 107.254 887 114.049C887 120.651 885.374 126.475 882.118 131.523C878.862 136.474 874.408 140.308 868.757 143.026C863.203 145.745 857.123 147.103 850.515 147.103ZM850.515 80.413C854.824 80.413 858.513 78.8598 861.576 75.7536C864.64 72.55 866.174 68.7643 866.174 64.3958C866.174 59.833 864.736 56.1442 861.865 53.3292C858.989 50.4168 855.208 48.9606 850.515 48.9606C845.729 48.9606 841.896 50.4168 839.024 53.3292C836.153 56.1442 834.715 59.833 834.715 64.3958C834.715 68.8613 836.201 72.6473 839.169 75.7536C842.136 78.8598 845.917 80.413 850.515 80.413ZM850.515 132.834C856.55 132.834 861.384 131.038 865.025 127.446C868.757 123.757 870.624 119.146 870.624 113.613C870.624 108.079 868.709 103.517 864.88 99.9254C861.048 96.2363 856.262 94.3919 850.515 94.3919C844.675 94.3919 839.841 96.1878 836.009 99.7796C832.18 103.274 830.265 107.885 830.265 113.613C830.265 119.146 832.084 123.757 835.72 127.446C839.457 131.038 844.387 132.834 850.515 132.834Z"
    />
    <path
        fill-rule="evenodd"
        clip-rule="evenodd"
        d="M221.75 175.378C221.75 178.765 218.135 180.968 215.064 179.453L121.058 133.096L141.664 122.882L203.271 153.261V29.9888L78.2792 91.625L100.528 102.596L79.8492 112.775L45.2226 95.7001C41.8176 94.0216 41.8176 89.2288 45.2226 87.5499L215.064 3.79701C218.135 2.28228 221.75 4.48522 221.75 7.87223V175.378Z"
    />
    <path
        fill-rule="evenodd"
        clip-rule="evenodd"
        d="M0 7.87223C0 4.48522 3.61412 2.28228 6.68584 3.79701L100.692 50.1537L80.0858 60.3684L18.4792 29.9888V153.261L143.471 91.625L121.222 80.6539L141.9 70.4745L176.528 87.5499C179.933 89.2288 179.933 94.0216 176.528 95.7001L6.68584 179.453C3.61412 180.968 0 178.765 0 175.378V7.87223Z"
    />
</svg>