<svg xmlns="http://www.w3.org/2000/svg" version="1.1" viewBox="0 0 580 105.48">
    <g transform="matrix(1.3333333,0,0,-1.3333333,0,105.48)">
        <g transform="scale(0.1)">
            <path id="underbar" d="M 4350,215.742 H 0 v 30 h 4350 v -30" style="fill: #ffffff; fill-opacity: 0.8; fill-rule: nonzero; stroke: none;"/>
            <g id="title" style="fill: #ffffff; fill-opacity: 1; fill-rule: nonzero; stroke: none;">
                <path d="m 963.883,569.59 v 1.156 c 0,114.84 85.837,209.957 205.317,209.957 73.66,0 117.73,-26.098 158.33,-64.375 l -31.31,-33.64 c -34.22,32.48 -72.5,55.675 -127.6,55.675 -89.9,0 -157.18,-73.074 -157.18,-166.453 v -1.164 c 0,-93.953 67.86,-167.609 157.18,-167.609 55.68,0 92.21,21.457 131.07,58.578 l 30.16,-29.582 c -42.34,-42.918 -88.73,-71.332 -162.39,-71.332 -117.16,0 -203.577,92.211 -203.577,208.789"/>
                <path d="m 1406.42,791.145 h 44.66 V 367.754 h -44.66 v 423.391"/>
                <path d="m 1558.95,667.609 h 44.66 V 367.754 h -44.66 z m -2.9,114.836 h 51.04 v -49.3 h -51.04 v 49.3"/>
                <path d="m 1949.85,517.395 v 1.156 c 0,69.019 -52.77,115.418 -108.45,115.418 -58,0 -105.57,-42.918 -105.57,-115.418 v -1.156 c 0,-70.762 48.73,-116.004 105.57,-116.004 55.68,0 108.45,46.984 108.45,116.004 z m -1.74,-89.325 c -24.36,-35.957 -59.74,-66.691 -114.83,-66.691 -71.92,0 -143.26,56.836 -143.26,155.434 v 1.156 c 0,98.019 71.34,156.019 143.26,156.019 55.68,0 91.63,-30.16 114.83,-63.797 v 57.418 h 44.66 V 274.961 h -44.66 V 428.07"/>
                <path d="m 2087.89,481.43 v 186.179 h 44.66 V 492.453 c 0,-55.68 30.16,-90.48 82.94,-90.48 51.03,0 89.89,37.699 89.89,93.961 v 171.675 h 44.08 V 367.754 h -44.08 v 52.199 c -20.29,-32.476 -51.03,-58.574 -102.65,-58.574 -72.5,0 -114.84,48.715 -114.84,120.051"/>
                <path d="m 2669.62,535.371 c -5.22,54.516 -36.53,100.918 -95.69,100.918 -51.63,0 -91.06,-42.918 -97.45,-100.918 z m -87.58,-135.719 c 41.18,0 70.19,16.825 94.54,42.34 l 27.84,-24.941 c -30.15,-33.637 -66.7,-56.25 -123.53,-56.25 -82.36,0 -149.64,63.215 -149.64,156.594 0,86.996 60.9,156.593 143.84,156.593 88.73,0 139.77,-70.761 139.77,-158.918 0,-4.058 0,-8.699 -0.58,-15.66 h -237.8 c 6.39,-63.219 52.79,-99.758 105.56,-99.758"/>
                <path d="m 2946.87,552.77 c 67.27,0 111.35,35.96 111.35,89.32 v 1.156 c 0,58 -43.49,88.16 -109.04,88.16 H 2846.52 V 552.77 Z M 2800.7,773.746 h 151.97 c 91.63,0 151.95,-48.723 151.95,-128.762 v -1.156 c 0,-87.578 -73.08,-132.816 -159.49,-132.816 h -98.61 V 367.754 h -45.82 v 405.992"/>
                <path d="m 3180.61,667.609 h 44.65 v -78.3 c 22.04,49.882 65.54,85.839 122.39,83.519 v -48.14 h -3.49 c -65.54,0 -118.9,-46.977 -118.9,-137.458 V 367.754 h -44.65 v 299.855"/>
                <path d="m 3419.56,667.609 h 44.66 V 367.754 h -44.66 z m -2.9,114.836 h 51.05 v -49.3 h -51.05 v 49.3"/>
                <path d="m 3550.64,396.172 198.94,233.734 h -191.97 v 37.703 h 252.87 V 639.191 L 3610.96,405.453 h 199.52 v -37.699 h -259.84 v 28.418"/>
                <path d="m 4101.64,535.371 c -5.22,54.516 -36.54,100.918 -95.7,100.918 -51.62,0 -91.06,-42.918 -97.43,-100.918 z m -87.58,-135.719 c 41.17,0 70.18,16.825 94.53,42.34 l 27.85,-24.941 c -30.16,-33.637 -66.7,-56.25 -123.54,-56.25 -82.36,0 -149.64,63.215 -149.64,156.594 0,86.996 60.9,156.593 143.84,156.593 88.74,0 139.78,-70.761 139.78,-158.918 0,-4.058 0,-8.699 -0.58,-15.66 h -237.79 c 6.37,-63.219 52.77,-99.758 105.55,-99.758"/>
            </g>
            <g id="bullet-items" style="fill: #ffffff; fill-opacity: 0.8; fill-rule: nonzero; stroke: none;">
                <path d="m 989.703,16.6406 13.287,15.918 c 9.2,-7.5859 18.84,-12.4102 30.52,-12.4102 9.2,0 14.75,3.6524 14.75,9.6368 v 0.2929 c 0,5.6953 -3.51,8.6133 -20.59,13 -20.59,5.25 -33.881,10.9453 -33.881,31.25 v 0.293 c 0,18.543 14.891,30.8089 35.781,30.8089 14.89,0 27.59,-4.676 37.96,-12.9964 l -11.68,-16.9453 c -9.05,6.2812 -17.96,10.0781 -26.58,10.0781 -8.61,0 -13.14,-3.9453 -13.14,-8.9062 v -0.293 c 0,-6.7188 4.38,-8.9063 22.05,-13.4375 20.74,-5.3984 32.42,-12.8516 32.42,-30.6641 v -0.2929 c 0,-20.293 -15.48,-31.687544 -37.53,-31.687544 -15.48,0 -31.1,5.410154 -43.367,16.355444"/>
                <path d="m 1083.75,103.965 h 24.09 l 21.17,-69.2189 22.93,69.5119 h 19.28 l 22.92,-69.5119 21.18,69.2189 h 23.51 L 1203.93,1.01563 h -19.57 L 1161.28,67.9023 1138.21,1.01563 h -19.56 l -34.9,102.94937"/>
                <path d="m 1260.58,103.965 h 77.1 V 83.9648 h -54.76 V 63.2227 h 48.19 v -20 h -48.19 V 21.7578 h 55.49 V 1.75 h -77.83 v 102.215"/>
                <path d="m 1363.53,103.965 h 77.1 V 83.9648 h -54.76 V 63.2227 h 48.19 v -20 h -48.19 V 21.7578 h 55.49 V 1.75 h -77.83 v 102.215"/>
                <path d="m 1506.78,52.4219 c 11.24,0 17.81,6.7187 17.81,15.4804 v 0.293 c 0,10.0664 -7.01,15.4766 -18.25,15.4766 h -17.38 v -31.25 z m -40.31,51.5431 h 41.77 c 24.39,0 39.13,-14.4533 39.13,-35.3322 v -0.293 c 0,-23.6601 -18.4,-35.9257 -41.32,-35.9257 h -17.09 V 1.75 h -22.49 v 102.215"/>
                <path d="m 1562.12,16.6406 13.29,15.918 c 9.2,-7.5859 18.84,-12.4102 30.52,-12.4102 9.2,0 14.75,3.6524 14.75,9.6368 v 0.2929 c 0,5.6953 -3.51,8.6133 -20.59,13 -20.59,5.25 -33.88,10.9453 -33.88,31.25 v 0.293 c 0,18.543 14.89,30.8089 35.78,30.8089 14.89,0 27.59,-4.676 37.97,-12.9964 l -11.69,-16.9453 c -9.05,6.2812 -17.96,10.0781 -26.58,10.0781 -8.61,0 -13.14,-3.9453 -13.14,-8.9062 v -0.293 c 0,-6.7188 4.38,-8.9063 22.06,-13.4375 20.73,-5.3984 32.41,-12.8516 32.41,-30.6641 v -0.2929 c 0,-20.293 -15.48,-31.687544 -37.53,-31.687544 -15.48,0 -31.1,5.410154 -43.37,16.355444"/>
                <path d="m 1689.31,83.2344 h -31.11 v 20.7306 h 84.7 V 83.2344 h -31.11 V 1.75 h -22.48 v 81.4844"/>
                <path d="m 1810.8,44.5313 -13.58,33.1562 -13.58,-33.1562 z m -23.65,60.1677 h 20.73 L 1851.69,1.75 h -23.51 l -9.35,22.9297 h -43.22 L 1766.26,1.75 h -22.92 l 43.81,102.949"/>
                <path d="m 1872.57,103.965 h 22.49 V 59.2891 l 41.47,44.6759 h 27.16 L 1922.07,60.5977 1965.59,1.75 h -27.02 L 1906.88,45.2656 1895.06,33 V 1.75 h -22.49 v 102.215"/>
                <path d="m 1984.27,103.965 h 77.11 V 83.9648 h -54.76 V 63.2227 h 48.18 v -20 h -48.18 V 21.7578 h 55.48 V 1.75 h -77.83 v 102.215"/>
                <path d="m 2080.21,16.6406 13.29,15.918 c 9.2,-7.5859 18.84,-12.4102 30.52,-12.4102 9.2,0 14.75,3.6524 14.75,9.6368 v 0.2929 c 0,5.6953 -3.51,8.6133 -20.59,13 -20.59,5.25 -33.88,10.9453 -33.88,31.25 v 0.293 c 0,18.543 14.89,30.8089 35.78,30.8089 14.89,0 27.6,-4.676 37.97,-12.9964 l -11.69,-16.9453 c -9.05,6.2812 -17.96,10.0781 -26.57,10.0781 -8.62,0 -13.14,-3.9453 -13.14,-8.9062 v -0.293 c 0,-6.7188 4.38,-8.9063 22.04,-13.4375 20.74,-5.3984 32.42,-12.8516 32.42,-30.6641 v -0.2929 c 0,-20.293 -15.48,-31.687544 -37.53,-31.687544 -15.47,0 -31.1,5.410154 -43.37,16.355444"/>
                <path d="m 2425.85,52.5703 v 0.293 c 0,29.0508 21.89,52.8597 53.29,52.8597 19.28,0 30.82,-6.4261 40.3,-15.7699 l -14.3,-16.5039 c -7.88,7.1563 -15.92,11.5313 -26.15,11.5313 -17.22,0 -29.63,-14.3047 -29.63,-31.8242 v -0.293 c 0,-17.5313 12.11,-32.1289 29.63,-32.1289 11.69,0 18.84,4.6679 26.88,11.9687 l 14.31,-14.4492 C 2509.67,7.00391 2497.98,0 2478.27,0 c -30.09,0 -52.42,23.2148 -52.42,52.5703"/>
                <path d="m 2620.93,52.5703 v 0.293 c 0,17.5195 -12.85,32.1172 -30.96,32.1172 -18.1,0 -30.66,-14.3047 -30.66,-31.8242 v -0.293 c 0,-17.5313 12.85,-32.1289 30.95,-32.1289 18.11,0 30.67,14.3047 30.67,31.8359 z m -85.13,0 v 0.293 c 0,29.0508 22.92,52.8597 54.46,52.8597 31.55,0 54.18,-23.516 54.18,-52.5667 v -0.293 C 2644.44,23.8008 2621.51,0 2589.97,0 2558.43,0 2535.8,23.5078 2535.8,52.5703"/>
                <path d="m 2669.55,103.965 h 20.73 l 47.9,-62.9377 v 62.9377 h 22.2 V 1.75 h -19.13 l -49.5,64.9805 V 1.75 h -22.2 v 102.215"/>
                <path d="m 2813.83,83.2344 h -31.11 v 20.7306 h 84.7 V 83.2344 h -31.1 V 1.75 h -22.49 v 81.4844"/>
                <path d="m 2889.76,103.965 h 77.1 V 83.9648 H 2912.1 V 63.2227 h 48.18 v -20 H 2912.1 V 21.7578 h 55.49 V 1.75 h -77.83 v 102.215"/>
                <path d="m 2985.68,16.6406 13.29,15.918 c 9.2,-7.5859 18.84,-12.4102 30.52,-12.4102 9.2,0 14.76,3.6524 14.76,9.6368 v 0.2929 c 0,5.6953 -3.51,8.6133 -20.6,13 -20.58,5.25 -33.87,10.9453 -33.87,31.25 v 0.293 c 0,18.543 14.89,30.8089 35.78,30.8089 14.89,0 27.59,-4.676 37.96,-12.9964 l -11.68,-16.9453 c -9.06,6.2812 -17.96,10.0781 -26.58,10.0781 -8.62,0 -13.14,-3.9453 -13.14,-8.9062 v -0.293 c 0,-6.7188 4.37,-8.9063 22.05,-13.4375 20.73,-5.3984 32.41,-12.8516 32.41,-30.6641 v -0.2929 c 0,-20.293 -15.48,-31.687544 -37.53,-31.687544 -15.48,0 -31.1,5.410154 -43.37,16.355444"/>
                <path d="m 3112.88,83.2344 h -31.1 v 20.7306 h 84.69 V 83.2344 h -31.1 V 1.75 h -22.49 v 81.4844"/>
                <path d="m 3179.61,16.6406 13.29,15.918 c 9.2,-7.5859 18.84,-12.4102 30.52,-12.4102 9.2,0 14.75,3.6524 14.75,9.6368 v 0.2929 c 0,5.6953 -3.5,8.6133 -20.59,13 -20.59,5.25 -33.88,10.9453 -33.88,31.25 v 0.293 c 0,18.543 14.89,30.8089 35.78,30.8089 14.9,0 27.6,-4.676 37.96,-12.9964 l -11.68,-16.9453 c -9.05,6.2812 -17.96,10.0781 -26.57,10.0781 -8.62,0 -13.15,-3.9453 -13.15,-8.9062 v -0.293 c 0,-6.7188 4.38,-8.9063 22.06,-13.4375 20.73,-5.3984 32.41,-12.8516 32.41,-30.6641 v -0.2929 c 0,-20.293 -15.48,-31.687544 -37.53,-31.687544 -15.48,0 -31.1,5.410154 -43.37,16.355444"/>
                <path d="m 3529.79,103.965 h 77.09 V 83.9648 h -54.75 V 63.2227 h 48.18 v -20 h -48.18 V 21.7578 h 55.49 V 1.75 h -77.83 v 102.215"/>
                <path d="m 3623.97,103.965 h 24.83 l 26.72,-71.9923 26.73,71.9923 h 24.23 L 3685.16,1.01563 H 3665.3 L 3623.97,103.965"/>
                <path d="m 3747.36,103.965 h 77.1 V 83.9648 h -54.75 V 63.2227 h 48.18 v -20 h -48.18 V 21.7578 h 55.49 V 1.75 h -77.84 v 102.215"/>
                <path d="m 3850.3,103.965 h 20.74 l 47.9,-62.9377 v 62.9377 h 22.19 V 1.75 H 3922 l -49.5,64.9805 V 1.75 h -22.2 v 102.215"/>
                <path d="m 3994.58,83.2344 h -31.1 v 20.7306 h 84.69 V 83.2344 h -31.1 V 1.75 h -22.49 v 81.4844"/>
                <path d="m 4061.31,16.6406 13.29,15.918 c 9.2,-7.5859 18.84,-12.4102 30.52,-12.4102 9.2,0 14.75,3.6524 14.75,9.6368 v 0.2929 c 0,5.6953 -3.5,8.6133 -20.59,13 -20.59,5.25 -33.88,10.9453 -33.88,31.25 v 0.293 c 0,18.543 14.89,30.8089 35.78,30.8089 14.89,0 27.6,-4.676 37.96,-12.9964 l -11.68,-16.9453 c -9.05,6.2812 -17.96,10.0781 -26.57,10.0781 -8.62,0 -13.15,-3.9453 -13.15,-8.9062 v -0.293 c 0,-6.7188 4.38,-8.9063 22.05,-13.4375 20.74,-5.3984 32.42,-12.8516 32.42,-30.6641 v -0.2929 c 0,-20.293 -15.48,-31.687544 -37.53,-31.687544 -15.48,0 -31.11,5.410154 -43.37,16.355444"/>
            </g>
            <g id="dice-background" style="fill: #ffffff; fill-opacity: 1; fill-rule: nonzero; stroke: none;">
                <path d="M 631.117,713.207 289.52,672.543 72.25,401.82 h 391.559 l 167.308,311.387"/>
                <path d="M 631.117,713.207 463.809,401.82 614.855,61.3984 762.41,379.746 631.117,713.207"/>
                <path d="M 72.25,401.82 268.109,97.5898 614.855,61.3984 463.809,401.82 H 72.25"/>
            </g>
            <g id="dice-holes" style="fill: #a8223d; fill-opacity: 1; fill-rule: nonzero; stroke: none;">
                <path d="m 667.719,569.137 c 0,-24.063 -11.446,-43.571 -25.563,-43.571 -14.113,0 -25.558,19.508 -25.558,43.571 0,24.062 11.445,43.57 25.558,43.57 14.117,0 25.563,-19.508 25.563,-43.57"/>
                <path d="m 653.191,383.234 c 0,-24.062 -11.437,-43.566 -25.554,-43.566 -14.121,0 -25.567,19.504 -25.567,43.566 0,24.067 11.446,43.575 25.567,43.575 14.117,0 25.554,-19.508 25.554,-43.575"/>
                <path d="m 640.414,200.234 c 0,-24.062 -11.445,-43.562 -25.559,-43.562 -14.117,0 -25.562,19.5 -25.562,43.562 0,24.063 11.445,43.575 25.562,43.575 14.114,0 25.559,-19.512 25.559,-43.575"/>
                <path d="m 322.457,286.855 c -8.762,-14.199 -32.687,-15.332 -53.437,-2.527 -20.758,12.801 -30.481,34.688 -21.719,48.887 8.762,14.199 32.683,15.332 53.429,2.527 20.758,-12.793 30.481,-34.687 21.727,-48.887"/>
                <path d="m 318.656,512.008 c -9.511,13.699 -0.984,36.082 19.043,49.988 20.035,13.914 43.981,14.074 53.496,0.367 9.52,-13.707 0.993,-36.09 -19.043,-49.996 -20.027,-13.906 -43.976,-14.066 -53.496,-0.359"/>
                <path d="m 362.473,427.188 c -9.512,13.707 -0.989,36.089 19.043,49.996 20.031,13.902 43.976,14.066 53.5,0.359 9.511,-13.699 0.984,-36.086 -19.043,-49.992 -20.035,-13.906 -43.985,-14.071 -53.5,-0.363"/>
                <path d="m 278.496,595.078 c -9.512,13.707 -0.992,36.09 19.043,49.996 20.027,13.906 43.981,14.067 53.492,0.36 9.52,-13.7 0.996,-36.086 -19.039,-49.989 -20.027,-13.906 -43.98,-14.066 -53.496,-0.367"/>
                <path d="m 507.129,618.316 c -9.516,13.707 -0.992,36.09 19.039,49.997 20.027,13.906 43.984,14.066 53.496,0.363 9.516,-13.703 0.984,-36.086 -19.039,-49.992 -20.027,-13.907 -43.98,-14.075 -53.496,-0.368"/>
                <path d="m 141.715,419.633 c -9.52,13.707 -0.992,36.09 19.043,49.996 20.027,13.906 43.984,14.066 53.496,0.367 9.512,-13.711 0.984,-36.09 -19.043,-49.996 -20.031,-13.906 -43.981,-14.07 -53.496,-0.367"/>
                <path d="m 211.492,296.73 c -8.754,-14.199 -32.679,-15.332 -53.433,-2.531 -20.754,12.805 -30.477,34.688 -21.719,48.899 8.758,14.199 32.683,15.332 53.433,2.527 20.758,-12.801 30.481,-34.695 21.719,-48.895"/>
                <path d="m 326.988,124.707 c -8.761,-14.199 -32.679,-15.332 -53.433,-2.527 -20.758,12.8 -30.473,34.687 -21.723,48.886 8.766,14.2 32.684,15.34 53.441,2.539 20.75,-12.804 30.473,-34.699 21.715,-48.898"/>
                <path d="m 433.301,109.023 c -8.758,-14.1988 -32.688,-15.3316 -53.434,-2.527 -20.758,12.801 -30.476,34.688 -21.719,48.887 8.762,14.199 32.68,15.332 53.434,2.527 20.758,-12.793 30.481,-34.687 21.719,-48.887"/>
                <path d="m 544.242,93.3398 c -8.758,-14.1992 -32.683,-15.332 -53.437,-2.5273 -20.754,12.7925 -30.473,34.6875 -21.719,48.8865 8.762,14.199 32.687,15.332 53.437,2.528 20.754,-12.801 30.481,-34.688 21.719,-48.8872"/>
                <path d="m 436.316,286.855 c -8.753,-14.199 -32.679,-15.332 -53.433,-2.527 -20.754,12.801 -30.481,34.688 -21.715,48.887 8.754,14.199 32.68,15.332 53.437,2.527 20.75,-12.793 30.473,-34.687 21.711,-48.887"/>
            </g>
            <g id="bullet-points" style="fill: #ffffff; fill-opacity: 0.95; fill-rule: nonzero; stroke: none;">
                <path d="m 2287.53,92.4922 14.12,-28.625 31.58,-4.5899 -22.85,-22.2734 5.39,-31.45702 -28.24,14.85542 -28.25,-14.85542 5.39,31.45702 -22.85,22.2734 31.58,4.5899 14.13,28.625"/>
                <path d="m 3392.24,92.4922 14.12,-28.625 31.59,-4.5899 -22.86,-22.2734 5.4,-31.45702 -28.25,14.85542 -28.26,-14.85542 5.4,31.45702 -22.86,22.2734 31.6,4.5899 14.12,28.625"/>
            </g>
        </g>
    </g>
</svg>