<svg xmlns="http://www.w3.org/2000/svg" viewBox="0 0 348 72" fill="none">
    <g clip-path="url(#clip0_1590_81)">
        <path d="M92.8832 16.8862H99.0269V50.524H92.8832V16.8862ZM99.512 32.7485L111.961 16.8862H119.147L106.572 32.7485L119.147 50.524H111.961L99.512 32.7485Z"/>
        <path
            d="M123.781 49.3204C121.965 48.2513 120.484 46.6958 119.506 44.8293C118.494 42.89 117.982 40.7291 118.015 38.5419C117.995 36.3562 118.506 34.1983 119.506 32.2545C120.471 30.3599 121.954 28.7778 123.781 27.6916C125.799 26.5894 128.062 26.0118 130.361 26.0118C132.66 26.0118 134.922 26.5894 136.94 27.6916C138.768 28.7799 140.253 30.3613 141.225 32.2545C142.217 34.2006 142.725 36.3574 142.707 38.5419C142.739 40.7279 142.229 42.8878 141.225 44.8293C140.24 46.6944 138.757 48.2493 136.94 49.3204C134.922 50.4226 132.66 51.0002 130.361 51.0002C128.062 51.0002 125.799 50.4226 123.781 49.3204ZM134.946 44.012C136.116 42.4322 136.703 40.4963 136.608 38.5329C136.706 36.5469 136.12 34.5873 134.946 32.982C134.376 32.3254 133.672 31.7989 132.881 31.438C132.09 31.0772 131.23 30.8904 130.361 30.8904C129.491 30.8904 128.632 31.0772 127.841 31.438C127.05 31.7989 126.345 32.3254 125.775 32.982C124.602 34.5873 124.015 36.5469 124.114 38.5329C124.011 40.4931 124.588 42.4286 125.748 44.012C126.323 44.6608 127.029 45.1803 127.82 45.536C128.61 45.8918 129.467 46.0758 130.334 46.0758C131.201 46.0758 132.058 45.8918 132.848 45.536C133.638 45.1803 134.344 44.6608 134.919 44.012H134.946Z"
        />
        <path
            d="M179.973 29.021C181.548 30.9611 182.335 33.6766 182.335 37.1677V50.5239H176.38V37.5988C176.38 35.3263 176.03 33.6557 175.32 32.6048C174.932 32.0618 174.409 31.6295 173.802 31.3507C173.196 31.0718 172.527 30.9561 171.862 31.015C171.177 30.9662 170.491 31.0875 169.864 31.368C169.237 31.6485 168.69 32.0795 168.269 32.6227C167.392 33.9696 166.97 35.5628 167.066 37.1677V50.5239H161.102V37.5988C161.102 35.3263 160.734 33.6557 159.997 32.6048C159.596 32.0646 159.064 31.6353 158.451 31.3573C157.838 31.0792 157.165 30.9614 156.494 31.015C155.612 30.9914 154.736 31.1646 153.93 31.522C153.124 31.8793 152.407 32.4118 151.832 33.0808V50.5239H145.868V26.497H150.97L151.159 28.4192C153.208 26.9219 155.68 26.1136 158.219 26.1108C161.302 26.1108 163.593 27.2186 165.09 29.4341C165.951 28.3376 167.08 27.4808 168.368 26.9461C169.787 26.3386 171.316 26.0327 172.859 26.0479C176.045 26.0898 178.416 27.0808 179.973 29.021Z"
        />
        <path
            d="M205.078 27.8443C206.712 28.9606 207.995 30.518 208.778 32.3353C209.602 34.315 210.027 36.4381 210.027 38.5823C210.027 40.7266 209.602 42.8497 208.778 44.8293C207.994 46.6461 206.711 48.2034 205.078 49.3204C203.343 50.4723 201.294 51.059 199.213 51C197.973 51.0235 196.736 50.8723 195.539 50.5509C194.496 50.2239 193.513 49.7295 192.629 49.0868V62.1557H186.674V26.497H191.479L192.108 28.7066C193.063 27.8844 194.15 27.2285 195.323 26.7665C196.567 26.3065 197.887 26.0841 199.213 26.1108C201.3 26.0683 203.349 26.6739 205.078 27.8443ZM202.437 44.012C203.498 42.3878 204.02 40.4706 203.928 38.5329C204.021 36.5951 203.499 34.6775 202.437 33.0539C201.976 32.3914 201.356 31.8551 200.635 31.4942C199.913 31.1332 199.112 30.9592 198.305 30.988C197.448 30.9284 196.59 31.0817 195.806 31.4343C195.022 31.7869 194.338 32.3279 193.814 33.009C192.74 34.6439 192.218 36.5797 192.323 38.5329C192.218 40.4862 192.74 42.422 193.814 44.0569C194.338 44.738 195.022 45.2789 195.806 45.6316C196.59 45.9842 197.448 46.1375 198.305 46.0778C199.112 46.1067 199.913 45.9326 200.635 45.5717C201.356 45.2108 201.976 44.6745 202.437 44.012Z"
        />
        <path
            d="M218.488 49.3204C216.671 48.2493 215.188 46.6944 214.204 44.8293C213.199 42.8878 212.69 40.7279 212.722 38.5419C212.703 36.3574 213.211 34.2006 214.204 32.2545C215.175 30.3613 216.66 28.7799 218.488 27.6916C220.506 26.5894 222.768 26.0118 225.067 26.0118C227.367 26.0118 229.629 26.5894 231.647 27.6916C233.475 28.7799 234.96 30.3613 235.931 32.2545C236.924 34.2006 237.432 36.3574 237.413 38.5419C237.445 40.7279 236.936 42.8878 235.931 44.8293C234.947 46.6944 233.463 48.2493 231.647 49.3204C229.629 50.4226 227.367 51.0002 225.067 51.0002C222.768 51.0002 220.506 50.4226 218.488 49.3204ZM229.653 44.012C230.822 42.4322 231.409 40.4963 231.314 38.5329C231.413 36.5469 230.826 34.5873 229.653 32.982C229.083 32.3254 228.378 31.7989 227.587 31.438C226.796 31.0772 225.937 30.8904 225.067 30.8904C224.198 30.8904 223.338 31.0772 222.547 31.438C221.756 31.7989 221.052 32.3254 220.482 32.982C219.308 34.5873 218.722 36.5469 218.82 38.5329C218.725 40.4963 219.312 42.4322 220.482 44.012C221.057 44.6608 221.763 45.1803 222.553 45.536C223.344 45.8918 224.201 46.0758 225.067 46.0758C225.934 46.0758 226.791 45.8918 227.582 45.536C228.372 45.1803 229.078 44.6608 229.653 44.012Z"
        />
        <path
            d="M259.473 29.0928C261.006 31.0749 261.775 33.7485 261.781 37.1138V50.524H255.817V37.5988C255.944 35.8645 255.549 34.1319 254.686 32.6228C254.269 32.0759 253.722 31.6421 253.094 31.3613C252.466 31.0804 251.778 30.9613 251.093 31.015C250.237 31.0004 249.389 31.1785 248.612 31.5361C247.834 31.8937 247.147 32.4217 246.602 33.0808V50.524H240.638V26.497H246.216L246.314 28.1767C248.197 26.8419 250.446 26.1205 252.754 26.1108C255.674 26.1108 257.937 27.1078 259.473 29.0928Z"
        />
        <path
            d="M270.593 49.3024C268.703 48.2449 267.166 46.6549 266.174 44.7305C265.18 42.7597 264.678 40.578 264.71 38.3713C264.68 36.2391 265.157 34.1304 266.102 32.2186C267.002 30.3876 268.4 28.8469 270.135 27.7725C272.029 26.6311 274.211 26.0546 276.422 26.1108C278.412 26.0482 280.381 26.5295 282.117 27.503C283.626 28.3889 284.845 29.6929 285.629 31.2575C286.429 32.9015 286.832 34.7106 286.805 36.5389C286.787 37.6389 286.657 38.7343 286.419 39.8084H270.907C271.079 41.6548 271.977 43.3573 273.404 44.5419C274.796 45.5991 276.507 46.1503 278.254 46.1048C280.785 46.1168 283.271 45.4333 285.44 44.1287L285.727 49.1766C284.59 49.7663 283.383 50.21 282.135 50.497C280.682 50.8463 279.192 51.0152 277.698 51C275.221 51.068 272.771 50.4825 270.593 49.3024ZM280.76 35.7754C280.777 34.5847 280.405 33.421 279.701 32.4611C279.316 31.9703 278.817 31.5817 278.247 31.3295C277.676 31.0773 277.053 30.9693 276.431 31.015C275.776 30.9804 275.121 31.077 274.504 31.2991C273.887 31.5212 273.321 31.8643 272.838 32.3084C271.909 33.2607 271.284 34.4674 271.042 35.7754H280.76Z"
        />
        <path
            d="M308.82 29.0928C310.353 31.0749 311.12 33.7485 311.12 37.1138V50.524H305.165V37.5988C305.291 35.8645 304.897 34.1319 304.033 32.6228C303.616 32.0759 303.069 31.6421 302.441 31.3613C301.814 31.0804 301.126 30.9613 300.44 31.015C299.584 31.0004 298.737 31.1785 297.959 31.5361C297.182 31.8937 296.495 32.4217 295.949 33.0808V50.524H289.985V26.497H295.509L295.608 28.1767C297.488 26.8432 299.734 26.1218 302.039 26.1108C305.021 26.1108 307.281 27.1048 308.82 29.0928Z"
        />
        <path
            d="M318.233 49.1587C317.15 47.934 316.567 46.3471 316.599 44.7126V31.4371H313.186L313.716 26.5329H316.599V21.2156L322.563 20.5868V26.497H327.844V31.4371H322.563V42.2605C322.524 43.1641 322.597 44.069 322.778 44.9551C322.832 45.1794 322.943 45.386 323.1 45.5545C323.258 45.723 323.456 45.8477 323.677 45.9162C324.505 46.096 325.354 46.1685 326.201 46.1317H327.844L327.314 51.0269H323.039C322.15 51.0866 321.259 50.9502 320.428 50.6273C319.598 50.3045 318.849 49.8031 318.233 49.1587Z"
        />
        <path
            d="M333.395 50.5689C332.049 50.2523 330.737 49.8041 329.479 49.2305L330.009 44.1287C331.2 44.8574 332.465 45.4595 333.781 45.9252C334.937 46.3237 336.152 46.527 337.374 46.5269C339.811 46.5269 341.027 45.7246 341.021 44.1198C341.041 43.7335 340.963 43.3485 340.795 43C340.627 42.6516 340.374 42.351 340.06 42.1258C338.974 41.4455 337.813 40.8911 336.602 40.4731C334.696 39.8567 332.938 38.8538 331.437 37.527C330.864 36.9334 330.42 36.2285 330.131 35.4559C329.842 34.6834 329.715 33.8597 329.757 33.0359C329.733 32.0614 329.937 31.0947 330.353 30.2133C330.77 29.3319 331.387 28.5605 332.156 27.9611C334.026 26.5969 336.311 25.921 338.623 26.0479C341.227 26.0168 343.796 26.6604 346.078 27.9162L345.548 33.009C344.467 32.2563 343.315 31.6124 342.108 31.0868C341.036 30.6375 339.884 30.4084 338.722 30.4132C337.882 30.3652 337.048 30.5854 336.341 31.0419C336.064 31.2485 335.842 31.5209 335.696 31.8345C335.551 32.1481 335.485 32.4931 335.506 32.8383C335.48 33.381 335.659 33.9135 336.009 34.3293C336.409 34.7637 336.892 35.1147 337.428 35.3623C338.03 35.6677 339.045 36.0898 340.455 36.6377C342.315 37.2298 344.027 38.2129 345.476 39.521C346.54 40.6907 347.095 42.235 347.021 43.8144C347.07 44.8287 346.872 45.8397 346.445 46.761C346.018 47.6824 345.374 48.4865 344.569 49.1048C342.934 50.3563 340.611 50.979 337.599 50.9731C336.187 50.9948 334.777 50.8593 333.395 50.5689Z"
        />
        <path d="M208.626 69.7006H205.455L204.71 71.8563H203.299L206.344 63.3144H207.737L210.772 71.8563H209.371L208.626 69.7006ZM208.177 68.4431L207.045 65.2006L205.895 68.4431H208.177Z" fill="#FCABA5" />
        <path d="M212.758 63.2874H214.204L218.039 69.1617V63.2874H219.467V71.8563H218.263L214.141 65.6677V71.8563H212.722L212.758 63.2874Z" fill="#FCABA5" />
        <path
            d="M222.35 63.2874H225.53C226.292 63.2736 227.045 63.4495 227.722 63.7994C228.351 64.1352 228.869 64.6471 229.213 65.2725C229.585 65.9742 229.77 66.7598 229.751 67.5539C229.773 68.3483 229.587 69.1345 229.213 69.8353C228.872 70.465 228.353 70.9804 227.722 71.3174C227.045 71.6673 226.292 71.8432 225.53 71.8294H222.35V63.2874ZM225.53 70.5539C225.9 70.5807 226.271 70.5226 226.615 70.384C226.959 70.2455 227.267 70.0302 227.515 69.7545C227.959 69.1067 228.197 68.3395 228.197 67.5539C228.197 66.7683 227.959 66.0011 227.515 65.3533C227.266 65.0792 226.958 64.865 226.614 64.7266C226.27 64.5881 225.9 64.5291 225.53 64.5539H223.734V70.5539H225.53Z"
            fill="#FCABA5"
        />
        <path
            d="M236.784 71.8563C236.342 71.7673 235.911 71.6287 235.5 71.4432L235.671 69.9432C236.562 70.4029 237.543 70.6606 238.545 70.6976C238.935 70.7204 239.322 70.6266 239.659 70.4282C239.79 70.342 239.897 70.2228 239.968 70.0825C240.038 69.9422 240.071 69.7857 240.063 69.6288C240.074 69.3856 239.998 69.1466 239.847 68.9551C239.677 68.7632 239.465 68.6127 239.228 68.515C238.824 68.3378 238.41 68.1849 237.988 68.0569C237.534 67.9141 237.095 67.7276 236.677 67.5C236.34 67.3136 236.054 67.0486 235.841 66.7276C235.621 66.3759 235.511 65.9658 235.527 65.5509C235.517 65.2212 235.585 64.8938 235.723 64.5945C235.862 64.2952 236.069 64.0323 236.326 63.8264C236.989 63.3438 237.799 63.1086 238.617 63.1617C239.1 63.1617 239.582 63.2159 240.054 63.3234C240.485 63.4189 240.906 63.5542 241.311 63.7276L241.159 65.1917C240.725 64.9714 240.271 64.794 239.802 64.6617C239.386 64.5515 238.958 64.4942 238.527 64.4911C238.134 64.4676 237.742 64.5547 237.395 64.7426C237.265 64.8216 237.159 64.9343 237.088 65.0687C237.017 65.2031 236.983 65.3542 236.991 65.506C236.984 65.7251 237.058 65.9392 237.198 66.1078C237.348 66.2832 237.539 66.4189 237.755 66.503C238.095 66.6477 238.442 66.7737 238.796 66.8803C239.579 67.0844 240.312 67.445 240.952 67.9402C241.182 68.1473 241.362 68.4032 241.481 68.6892C241.599 68.9752 241.651 69.2839 241.635 69.5929C241.64 69.9203 241.576 70.2451 241.446 70.5456C241.316 70.8461 241.123 71.1154 240.88 71.3354C240.143 71.8782 239.232 72.1308 238.32 72.045C237.803 72.041 237.288 71.9778 236.784 71.8563Z"
            fill="#FCABA5"
        />
        <path
            d="M245.452 71.4431C244.817 71.0786 244.299 70.5393 243.961 69.8892C243.586 69.169 243.397 68.366 243.413 67.5539C243.399 66.7421 243.588 65.9395 243.961 65.2186C244.304 64.5723 244.821 64.0343 245.452 63.6647C246.12 63.3054 246.867 63.1174 247.626 63.1174C248.384 63.1174 249.131 63.3054 249.799 63.6647C250.431 64.0343 250.947 64.5723 251.29 65.2186C251.661 65.9404 251.846 66.7428 251.829 67.5539C251.848 68.3652 251.663 69.1681 251.29 69.8892C250.952 70.5393 250.435 71.0786 249.799 71.4431C249.134 71.8112 248.386 72.0042 247.626 72.0042C246.865 72.0042 246.117 71.8112 245.452 71.4431ZM249.629 69.7725C250.085 69.1226 250.33 68.3479 250.33 67.5539C250.33 66.76 250.085 65.9853 249.629 65.3354C249.369 65.065 249.057 64.85 248.712 64.7031C248.367 64.5562 247.996 64.4804 247.621 64.4804C247.246 64.4804 246.875 64.5562 246.53 64.7031C246.185 64.85 245.874 65.065 245.614 65.3354C245.153 65.9833 244.905 66.7587 244.905 67.5539C244.905 68.3491 245.153 69.1246 245.614 69.7725C245.872 70.0451 246.184 70.2622 246.529 70.4106C246.874 70.5589 247.246 70.6354 247.621 70.6354C247.997 70.6354 248.369 70.5589 248.714 70.4106C249.059 70.2622 249.37 70.0451 249.629 69.7725Z"
            fill="#FCABA5"
        />
        <path d="M254.192 63.2874H255.611V70.5539H259.266V71.8563H254.192V63.2874Z" fill="#FCABA5" />
        <path
            d="M261.907 70.9581C261.271 70.1675 260.951 69.1689 261.009 68.1557V63.2874H262.419V67.7785C262.38 68.5065 262.535 69.232 262.868 69.8803C263.081 70.1125 263.34 70.2979 263.628 70.4248C263.917 70.5517 264.228 70.6172 264.543 70.6172C264.858 70.6172 265.17 70.5517 265.458 70.4248C265.747 70.2979 266.006 70.1125 266.219 69.8803C266.552 69.232 266.707 68.5065 266.668 67.7785V63.2874H268.078V68.1827C268.136 69.1958 267.816 70.1944 267.18 70.9851C266.454 71.639 265.511 72.0008 264.534 72.0008C263.557 72.0008 262.615 71.639 261.889 70.9851L261.907 70.9581Z"
            fill="#FCABA5"
        />
        <path d="M272.542 64.6707H270.099V63.3234H276.386V64.6707H273.952V71.8563H272.542V64.6707Z" fill="#FCABA5" />
        <path d="M278.497 63.2874H279.916V71.8563H278.497V63.2874Z" fill="#FCABA5" />
        <path
            d="M284.326 71.4431C283.691 71.0786 283.173 70.5393 282.835 69.8892C282.463 69.1681 282.278 68.3652 282.296 67.5539C282.28 66.7428 282.465 65.9404 282.835 65.2186C283.179 64.5723 283.695 64.0343 284.326 63.6647C284.995 63.3054 285.741 63.1174 286.5 63.1174C287.259 63.1174 288.005 63.3054 288.674 63.6647C289.305 64.0343 289.821 64.5723 290.165 65.2186C290.535 65.9404 290.72 66.7428 290.704 67.5539C290.722 68.3652 290.537 69.1681 290.165 69.8892C289.827 70.5393 289.309 71.0786 288.674 71.4431C288.008 71.8112 287.26 72.0042 286.5 72.0042C285.74 72.0042 284.992 71.8112 284.326 71.4431ZM288.503 69.7725C288.959 69.1226 289.204 68.3479 289.204 67.5539C289.204 66.76 288.959 65.9853 288.503 65.3354C288.243 65.065 287.931 64.85 287.587 64.7031C287.242 64.5562 286.87 64.4804 286.496 64.4804C286.121 64.4804 285.75 64.5562 285.405 64.7031C285.06 64.85 284.748 65.065 284.488 65.3354C284.027 65.9833 283.779 66.7587 283.779 67.5539C283.779 68.3491 284.027 69.1246 284.488 69.7725C284.747 70.0451 285.058 70.2622 285.403 70.4106C285.748 70.5589 286.12 70.6354 286.496 70.6354C286.871 70.6354 287.243 70.5589 287.588 70.4106C287.933 70.2622 288.245 70.0451 288.503 69.7725Z"
            fill="#FCABA5"
        />
        <path d="M293.084 63.2874H294.521L298.365 69.1617V63.2874H299.793V71.8563H298.617L294.503 65.6677V71.8563H293.084V63.2874Z" fill="#FCABA5" />
        <path
            d="M303.593 71.8563C303.153 71.7675 302.725 71.6289 302.317 71.4431L302.488 69.9431C303.376 70.4028 304.354 70.6604 305.353 70.6976C305.746 70.7194 306.136 70.6258 306.476 70.4282C306.607 70.3419 306.714 70.2227 306.785 70.0825C306.856 69.9422 306.889 69.7857 306.88 69.6288C306.891 69.3856 306.815 69.1466 306.665 68.9551C306.491 68.7633 306.276 68.6129 306.036 68.515C305.635 68.3374 305.225 68.1845 304.805 68.0569C304.348 67.9157 303.906 67.7292 303.485 67.5C303.148 67.3136 302.862 67.0486 302.65 66.7276C302.432 66.3749 302.326 65.9649 302.344 65.5509C302.324 65.212 302.386 64.8731 302.525 64.5634C302.665 64.2537 302.877 63.9823 303.144 63.7725C303.803 63.2905 304.61 63.0553 305.425 63.1078C305.909 63.1074 306.391 63.1616 306.862 63.2695C307.293 63.3637 307.715 63.499 308.12 63.6737L307.976 65.1378C307.542 64.919 307.087 64.7416 306.62 64.6078C306.203 64.4976 305.775 64.4403 305.344 64.4372C304.948 64.413 304.553 64.5001 304.204 64.6886C304.075 64.7681 303.97 64.8812 303.9 65.0156C303.831 65.1501 303.799 65.301 303.808 65.4521C303.799 65.6701 303.869 65.884 304.006 66.0539C304.16 66.2253 304.35 66.3603 304.563 66.4491C304.906 66.5935 305.257 66.7195 305.614 66.8264C306.393 67.0323 307.123 67.3928 307.76 67.8863C307.992 68.0926 308.174 68.3481 308.294 68.6341C308.414 68.9201 308.468 69.2293 308.452 69.539C308.458 69.8664 308.393 70.1912 308.263 70.4917C308.133 70.7922 307.94 71.0615 307.698 71.2815C306.959 71.822 306.049 72.0744 305.138 71.991C304.619 72.0054 304.101 71.9602 303.593 71.8563Z"
            fill="#FCABA5"
        />
        <path
            d="M314.452 63.2875H317.452C318.224 63.2427 318.988 63.4717 319.608 63.9342C319.878 64.1763 320.089 64.4771 320.224 64.8134C320.359 65.1497 320.416 65.5127 320.389 65.8743C320.41 66.3887 320.279 66.8979 320.012 67.3384C319.736 67.7289 319.361 68.0389 318.925 68.2366L320.838 71.8294H319.222L317.551 68.5958H315.889V71.8563H314.452V63.2875ZM317.147 67.3833C317.615 67.4221 318.082 67.2879 318.458 67.006C318.6 66.8678 318.711 66.7011 318.784 66.5169C318.857 66.3326 318.889 66.135 318.88 65.9372C318.88 64.9761 318.314 64.5 317.183 64.5H315.853V67.3653L317.147 67.3833Z"
            fill="#FCABA5"
        />
        <path d="M327.386 69.7006H324.251L323.47 71.8563H322.06L325.15 63.2874H326.542L329.533 71.8563H328.132L327.386 69.7006ZM326.937 68.4431L325.805 65.2006L324.656 68.4431H326.937Z" fill="#FCABA5" />
        <path
            d="M332.973 71.4431C332.322 71.0846 331.788 70.5449 331.437 69.8892C331.065 69.167 330.871 68.3663 330.871 67.5539C330.871 66.7415 331.065 65.9409 331.437 65.2186C331.802 64.5644 332.344 64.026 333 63.6647C333.699 63.2935 334.481 63.105 335.272 63.1168C335.677 63.1152 336.081 63.1604 336.476 63.2515C336.831 63.3331 337.175 63.4567 337.5 63.6198L337.356 64.9581C336.701 64.6399 335.983 64.4712 335.254 64.4641C334.715 64.4447 334.182 64.5819 333.719 64.8593C333.291 65.1194 332.95 65.5008 332.74 65.9551C332.516 66.458 332.406 67.0037 332.416 67.5539C332.406 68.107 332.516 68.6556 332.74 69.1617C332.939 69.6144 333.271 69.9963 333.692 70.2575C334.156 70.5325 334.688 70.6696 335.228 70.6527C335.593 70.6563 335.958 70.6171 336.314 70.5359C336.672 70.4452 337.021 70.3219 337.356 70.1677L337.5 71.497C336.788 71.837 336.008 72.0091 335.219 72C334.434 72.0137 333.66 71.8217 332.973 71.4431Z"
            fill="#FCABA5"
        />
        <path d="M339.826 63.2874H341.246V71.8563H339.826V63.2874ZM341.362 67.3114L344.524 63.2874H346.195L342.997 67.3024L346.204 71.7934H344.524L341.362 67.3114Z" fill="#FCABA5" />
        <path d="M29.488 59.5239L0 67.4281V18.0718L29.497 10.1766L29.488 59.5239Z"/>
        <path d="M67.4461 0V58.3922L37.9311 66.2964V7.90419L67.4191 0.00898204L67.4461 0Z"/>
    </g>
    <defs>
        <clipPath id="clip0_1590_81">
            <rect width="347.021" height="72"/>
        </clipPath>
    </defs>
</svg>