<svg xmlns="http://www.w3.org/2000/svg" viewBox="0 0 188 69" fill="none">
    <path
        d="M107.387 69C103.035 69 99.0506 67.928 95.4346 65.784C91.8506 63.64 88.9706 60.76 86.7946 57.144C84.6506 53.528 83.5786 49.512 83.5786 45.096C83.5786 42.984 83.8346 40.936 84.3466 38.952C84.8906 36.936 85.7066 34.984 86.7946 33.096L105.267 0H121.267L108.731 21.624C111.195 21.72 113.563 22.184 115.835 23.016C118.107 23.816 120.187 24.936 122.075 26.376C123.963 27.816 125.595 29.512 126.971 31.464C128.379 33.384 129.451 35.496 130.187 37.8C130.955 40.104 131.339 42.536 131.339 45.096C131.339 48.392 130.715 51.48 129.467 54.36C128.219 57.24 126.491 59.784 124.283 61.992C122.107 64.168 119.563 65.88 116.651 67.128C113.771 68.376 110.683 69 107.387 69ZM107.387 55.752C109.435 55.752 111.259 55.256 112.859 54.264C114.491 53.24 115.771 51.928 116.699 50.328C117.627 48.696 118.091 46.984 118.091 45.192C118.091 43.24 117.627 41.464 116.699 39.864C115.771 38.232 114.491 36.936 112.859 35.976C111.259 34.984 109.467 34.488 107.483 34.488C105.371 34.488 103.515 35 101.915 36.024C100.315 37.048 99.0666 38.376 98.1706 40.008C97.2746 41.608 96.8266 43.336 96.8266 45.192C96.8266 47.208 97.3226 49.016 98.3146 50.616C99.3386 52.184 100.651 53.432 102.251 54.36C103.851 55.288 105.563 55.752 107.387 55.752Z"
    />
    <path d="M62 69V17H52L64 0H75.5786V69H62Z"/>
    <path d="M45.1226 69H29.8586L19.6826 51.48L13.5786 60.5V69H0V19H14L13.5786 40L28.5 19H44L28.5 41L45.1226 69Z"/>
    <path
        d="M163.5 69C158.992 69 154.876 67.8773 151.152 65.6319C147.461 63.3865 144.504 60.3662 142.283 56.5712C140.094 52.7761 139 48.5857 139 44C139 40.5528 139.637 37.327 140.911 34.3226C142.185 31.2865 143.933 28.63 146.154 26.3529C148.408 24.0443 151.021 22.2416 153.994 20.945C156.967 19.6483 160.135 19 163.5 19C167.387 19 170.932 19.8065 174.133 21.4194C177.367 23.0323 180.095 25.2302 182.316 28.0133C184.57 30.7963 186.171 33.9431 187.118 37.4535C188.098 40.9639 188.261 44.6167 187.608 48.4118H153.602C154.027 49.8033 154.68 51.0683 155.562 52.2068C156.477 53.3137 157.587 54.1992 158.894 54.8634C160.233 55.5275 161.769 55.8754 163.5 55.907C165.199 55.9386 166.767 55.5591 168.204 54.7685C169.641 53.9779 170.987 53.0206 172 51.6923L185.697 54.6736C183.704 58.8798 180.732 62.327 176.779 65.0152C172.826 67.6717 168.4 69 163.5 69ZM153.112 38.7343H173.937C173.512 37.1531 172.794 35.7299 171.781 34.4649C170.768 33.1999 169.543 32.2037 168.106 31.4763C166.701 30.7489 165.166 30.3852 163.5 30.3852C161.867 30.3852 160.331 30.7489 158.894 31.4763C157.489 32.2037 156.281 33.1999 155.268 34.4649C154.288 35.6983 153.569 37.1214 153.112 38.7343Z"
    />
</svg>