<svg xmlns="http://www.w3.org/2000/svg" viewBox="0 0 184 69" fill="none">
    <path
        d="M159.5 69C154.992 69 150.876 67.8324 147.152 65.4971C143.461 63.1619 140.504 60.0209 138.283 56.074C136.094 52.1271 135 47.7691 135 43C135 39.4149 135.637 36.0601 136.911 32.9355C138.185 29.778 139.933 27.0152 142.154 24.6471C144.408 22.246 147.021 20.3713 149.994 19.0228C152.967 17.6743 156.135 17 159.5 17C163.387 17 166.932 17.8387 170.133 19.5161C173.367 21.1935 176.095 23.4794 178.316 26.3738C180.57 29.2682 182.171 32.5408 183.118 36.1916C184.098 39.8425 184.261 43.6414 183.608 47.5882H149.602C150.027 49.0354 150.68 50.351 151.562 51.5351C152.477 52.6863 153.587 53.6072 154.894 54.2979C156.233 54.9886 157.769 55.3504 159.5 55.3833C161.199 55.4162 162.767 55.0215 164.204 54.1992C165.641 53.377 165.987 53.3814 167 52L181.697 54.1006C179.704 58.475 176.732 62.0601 172.779 64.8558C168.826 67.6186 164.4 69 159.5 69ZM149.112 37.5237H169.937C169.512 35.8792 168.794 34.3991 167.781 33.0835C166.768 31.7679 165.543 30.7318 164.106 29.9753C162.701 29.2188 161.166 28.8406 159.5 28.8406C157.867 28.8406 156.331 29.2188 154.894 29.9753C153.489 30.7318 152.281 31.7679 151.268 33.0835C150.288 34.3662 149.569 35.8463 149.112 37.5237Z"
    />
    <path
        d="M105.808 69C101.456 69 97.472 67.928 93.856 65.784C90.272 63.64 87.392 60.76 85.216 57.144C83.072 53.528 82 49.512 82 45.096C82 42.984 82.256 40.936 82.768 38.952C83.312 36.936 84.128 34.984 85.216 33.096L103.689 0H119.689L107.152 21.624C109.616 21.72 111.984 22.184 114.256 23.016C116.528 23.816 118.608 24.936 120.496 26.376C122.384 27.816 124.016 29.512 125.392 31.464C126.8 33.384 127.872 35.496 128.608 37.8C129.376 40.104 129.76 42.536 129.76 45.096C129.76 48.392 129.136 51.48 127.888 54.36C126.64 57.24 124.912 59.784 122.704 61.992C120.528 64.168 117.984 65.88 115.072 67.128C112.192 68.376 109.104 69 105.808 69ZM105.808 55.752C107.856 55.752 109.68 55.256 111.28 54.264C112.912 53.24 114.192 51.928 115.12 50.328C116.048 48.696 116.512 46.984 116.512 45.192C116.512 43.24 116.048 41.464 115.12 39.864C114.192 38.232 112.912 36.936 111.28 35.976C109.68 34.984 107.888 34.488 105.904 34.488C103.792 34.488 101.936 35 100.336 36.024C98.736 37.048 97.488 38.376 96.592 40.008C95.696 41.608 95.248 43.336 95.248 45.192C95.248 47.208 95.744 49.016 96.736 50.616C97.76 52.184 99.072 53.432 100.672 54.36C102.272 55.288 103.984 55.752 105.808 55.752Z"
    />
    <path d="M60 69V17H51L60 0H74V69H60Z"/>
    <path d="M45.544 69H30.28L20.104 51.48L14 59V69H3.05176e-05L0 17H14.248L14 40L30 17H46L29.176 40.728L45.544 69Z"/>
</svg>