<svg xmlns="http://www.w3.org/2000/svg" viewBox="0 0 104 29" fill="none">
    <g>
        <path d="M16.6004 4.70768L14.2501 2.5226C14.0204 2.30965 13.7339 2.16897 13.4228 2.11863L3.31054 0.528544C2.87042 0.458849 2.60713 1.0048 2.93625 1.30939L9.72638 7.6323C9.86448 7.76137 9.94321 7.94206 9.94321 8.13308L9.93934 17.751C9.93934 18.1679 10.4491 18.3641 10.7241 18.0556L16.4081 11.7146C16.6701 11.4242 16.8134 11.0448 16.8134 10.6524L16.8185 5.75956V5.21104C16.8185 5.01873 16.7398 4.83675 16.6004 4.70768Z"/>
        <path d="M1.04125e-05 20.0418L0.0438926 2.63735C0.0451833 2.23337 0.530469 2.03203 0.813122 2.31726L7.50774 9.05964C7.63552 9.18742 7.7065 9.36165 7.70521 9.54234L7.66133 27.1353C7.66004 27.5392 7.17475 27.7406 6.8921 27.4553L0.330418 20.8472C0.11746 20.6342 -0.00128024 20.3438 1.04125e-05 20.0418Z"/>
        <path d="M21.354 18.5562V5.05469H26.2778C27.4356 5.05469 28.4397 5.24829 29.2889 5.63548C30.1382 6.02268 30.7926 6.57121 31.2507 7.28236C31.7102 7.99351 31.9399 8.8376 31.9399 9.81591C31.9399 10.7942 31.7102 11.6422 31.2507 12.3585C30.7913 13.0761 30.1421 13.6298 29.3018 14.0196C28.4616 14.4094 27.4691 14.6042 26.323 14.6042H24.9188V18.5562H21.354ZM24.9188 11.4989H25.9268C26.6947 11.4989 27.282 11.3544 27.686 11.0666C28.0912 10.7787 28.2938 10.3619 28.2938 9.81591C28.2938 9.28158 28.0912 8.87244 27.686 8.58721C27.2807 8.30197 26.6947 8.16 25.9268 8.16H24.9188V11.4989Z"/>
        <path d="M40.6519 18.4741H37.8357L37.6782 17.5048C37.3581 17.8752 36.9722 18.1591 36.5179 18.3553C36.0649 18.5528 35.5706 18.6509 35.0349 18.6509C34.4361 18.6509 33.9043 18.5347 33.4397 18.3024C32.975 18.0701 32.6085 17.75 32.3413 17.3409C32.0742 16.933 31.9399 16.4671 31.9399 15.9431C31.9399 15.3907 32.0858 14.9054 32.3762 14.4885C32.6666 14.0716 33.0693 13.7438 33.5842 13.505C34.0992 13.2676 34.6877 13.1475 35.3499 13.1475C35.7099 13.1475 36.0649 13.185 36.4134 13.2572C36.7618 13.3308 37.1026 13.4379 37.4343 13.5786V13.4379C37.4343 13.1682 37.3478 12.9294 37.1774 12.7242C37.0058 12.519 36.767 12.3564 36.4624 12.2389C36.1578 12.1215 35.8093 12.0621 35.4208 12.0621C35.0259 12.0621 34.6426 12.1215 34.2734 12.2389C33.9043 12.3564 33.5739 12.5241 33.2835 12.741L32.4639 10.352C33.1028 10.0642 33.7365 9.84604 34.3651 9.70019C34.9923 9.55306 35.5951 9.47949 36.1707 9.47949C37.0832 9.47949 37.8757 9.6576 38.5468 10.0125C39.2179 10.3688 39.7368 10.8708 40.1033 11.52C40.4699 12.1692 40.6532 12.9346 40.6532 13.8161V18.4741H40.6519ZM35.7771 16.2787C36.0391 16.2787 36.2959 16.2206 36.5489 16.1018C36.8018 15.9844 37.0096 15.8347 37.1723 15.6527C37.3349 15.4707 37.4162 15.2849 37.4162 15.0977V15.0887C37.2071 14.9648 36.9748 14.8693 36.7179 14.8022C36.4624 14.735 36.2068 14.7002 35.95 14.7002C35.5835 14.7002 35.2944 14.7699 35.0827 14.908C34.871 15.0461 34.7639 15.2358 34.7639 15.4772C34.7639 15.6295 34.8078 15.7676 34.8942 15.8915C34.982 16.0154 35.102 16.1109 35.2556 16.178C35.4131 16.2451 35.586 16.2787 35.7771 16.2787Z"/>
        <path d="M46.4301 23.0572H42.9196L44.7742 18.5838L40.0659 9.55566H43.8462L46.3398 14.8125L48.5184 9.55566H52.029L46.4301 23.0572Z"/>
        <path d="M56.7218 18.5562H53.157V5.05469H56.7218V18.5562Z"/>
        <path d="M67.1593 18.5506H63.8785V14.2179C63.8785 13.6191 63.7649 13.157 63.5365 12.833C63.308 12.5091 62.9841 12.3478 62.5633 12.3478C62.1309 12.3478 61.7954 12.5117 61.5592 12.8382C61.3217 13.1647 61.203 13.6242 61.203 14.2179V18.5506H57.9221V9.56253H60.5189L60.626 10.9913C60.9397 10.4634 61.3501 10.0646 61.8573 9.79097C62.3645 9.51865 62.9582 9.38184 63.6397 9.38184C64.7419 9.38184 65.6054 9.72773 66.2275 10.4195C66.8496 11.1113 67.1606 12.0754 67.1606 13.3093V18.5506H67.1593Z"/>
        <path d="M77.8007 9.39648L74.0733 18.715H70.746L67.0186 9.39648H70.6905L72.4148 15.2857L74.1391 9.39648H77.8007V9.39648Z"/>
        <path d="M94.2464 9.43186C94.0334 9.3983 93.823 9.38281 93.6152 9.38281C93.0048 9.38281 92.4627 9.5222 91.9877 9.80098C91.514 10.0785 91.1281 10.4708 90.8326 10.9729L90.7255 9.56221H87.8809V18.5503H91.1617V14.5687C91.1617 14.1118 91.2482 13.7207 91.4198 13.3903C91.5915 13.0612 91.8354 12.8043 92.1529 12.6224C92.4704 12.4404 92.8447 12.3487 93.2784 12.3487C93.6514 12.3487 94.0554 12.421 94.4864 12.563L94.4877 12.5527V9.47703C94.4064 9.45896 94.3264 9.44347 94.2464 9.43186Z"/>
        <path d="M103.252 18.3049C102.496 18.5927 101.767 18.7373 101.065 18.7373C100.302 18.7373 99.6308 18.5786 99.0487 18.2598C98.4666 17.9423 98.0123 17.4996 97.6845 16.9317C97.358 16.3651 97.1941 15.7094 97.1941 14.9647V12.5163H95.6182V9.55559H97.3735V7.30469H100.515V9.55559H102.882V12.5176H100.516V14.3633C100.516 14.8253 100.645 15.1751 100.903 15.4126C101.162 15.6501 101.465 15.7675 101.812 15.7675C102.166 15.7675 102.508 15.6539 102.838 15.4255L103.252 18.3049Z"/>
        <path d="M77.9453 14.0457C77.9453 11.3031 80.182 9.61621 82.4755 9.61621C85.2517 9.61621 86.6017 11.3883 86.6017 13.6882C86.6017 14.1658 86.5436 14.6085 86.4856 14.8472H80.8364C81.1061 15.9882 82.0122 16.4825 83.2267 16.4825C83.921 16.4825 84.6154 16.2953 85.2891 15.9546L86.2532 17.5395C85.2504 18.1694 83.9404 18.4933 82.802 18.4933C80.0659 18.492 77.9453 16.8736 77.9453 14.0457ZM84.0566 13.0739C84.0566 12.2388 83.6319 11.609 82.5529 11.609C81.705 11.609 80.9913 12.0865 80.799 13.0739H84.0566Z"/>
        <path d="M82.8034 18.6382C79.8103 18.6382 77.8008 16.7926 77.8008 14.0461C77.8008 11.1821 80.1782 9.4707 82.4755 9.4707C85.1098 9.4707 86.7463 11.0866 86.7463 13.6886C86.7463 14.2048 86.6818 14.654 86.6263 14.8824L86.5992 14.9934H81.0274C81.3823 16.0982 82.4084 16.337 83.228 16.337C83.8798 16.337 84.5522 16.164 85.2259 15.8246L85.3447 15.7652L86.4533 17.5876L86.3307 17.6651C85.3589 18.273 84.0398 18.6382 82.8034 18.6382ZM82.4755 9.76239C80.3189 9.76239 78.0899 11.3641 78.0899 14.0461C78.0899 16.6183 79.9846 18.3465 82.8034 18.3465C83.9365 18.3465 85.1394 18.0277 86.0545 17.4895L85.2349 16.1434C84.5599 16.4648 83.8849 16.6287 83.2267 16.6287C81.8612 16.6287 80.9616 16.0079 80.6957 14.8811L80.6531 14.7004H86.3694C86.4159 14.4565 86.4572 14.0809 86.4572 13.6886C86.4572 11.2299 84.9691 9.76239 82.4755 9.76239ZM84.2011 13.2201H80.6221L80.6557 13.0458C80.8493 12.0546 81.5579 11.4622 82.5517 11.4622C83.5997 11.4622 84.1998 12.0494 84.1998 13.0729V13.2201H84.2011ZM80.9822 12.9284H83.9082C83.8694 12.3631 83.5868 11.7552 82.5543 11.7552C81.7553 11.7552 81.1913 12.1798 80.9822 12.9284Z"/>
    </g>
</svg>