<svg xmlns="http://www.w3.org/2000/svg" width="32" height="32" viewBox="0 0 32 32" fill="none">
    <rect width="32" height="32" fill="#FACC15" />
    <path
        d="M21.0113 27C19.6237 27 18.3535 26.6582 17.2005 25.9746C16.0578 25.291 15.1395 24.3728 14.4457 23.2198C13.7621 22.0669 13.4204 20.7864 13.4204 19.3784C13.4204 18.705 13.502 18.0521 13.6652 17.4195C13.8387 16.7767 14.0988 16.1543 14.4457 15.5523L20.3356 5H25.437L21.4398 11.8946C22.2255 11.9252 22.9805 12.0732 23.7049 12.3384C24.4293 12.5935 25.0925 12.9506 25.6944 13.4097C26.2964 13.8689 26.8168 14.4096 27.2555 15.032C27.7044 15.6442 28.0462 16.3176 28.2809 17.0522C28.5257 17.7868 28.6482 18.5622 28.6482 19.3784C28.6482 20.4293 28.4492 21.4139 28.0513 22.3322C27.6534 23.2504 27.1024 24.0616 26.3984 24.7656C25.7046 25.4594 24.8935 26.0052 23.965 26.4031C23.0468 26.801 22.0622 27 21.0113 27ZM21.0113 22.776C21.6643 22.776 22.2459 22.6179 22.756 22.3016C23.2764 21.9751 23.6845 21.5568 23.9804 21.0466C24.2762 20.5263 24.4242 19.9804 24.4242 19.409C24.4242 18.7867 24.2762 18.2204 23.9804 17.7103C23.6845 17.1899 23.2764 16.7767 22.756 16.4706C22.2459 16.1543 21.6745 15.9962 21.0419 15.9962C20.3685 15.9962 19.7768 16.1594 19.2666 16.4859C18.7565 16.8124 18.3586 17.2358 18.0729 17.7562C17.7872 18.2663 17.6444 18.8173 17.6444 19.409C17.6444 20.0518 17.8025 20.6283 18.1188 21.1384C18.4453 21.6384 18.8636 22.0363 19.3737 22.3322C19.8839 22.6281 20.4297 22.776 21.0113 22.776Z"
        fill="black"
    />
    <path d="M6.54021 27V10.4203H3.35181L7.17789 5H10.8696V27H6.54021Z" fill="black" />
</svg>