<svg xmlns="http://www.w3.org/2000/svg" viewBox="0 0 937.57 271.88">
    <g>
        <path d="M768.5,170.94v57.47h-32.16v-57.47c0-18.47-10.72-27.82-23.95-27.82-14.37,0-27.6,9.35-27.6,27.82v57.47h-32.39V110.73h32.39v10.49c6.39-7.29,19.84-10.49,30.33-10.49,31.47,0,53.37,26.91,53.37,60.21Z"/>
        <g>
            <path d="M397.81,140.61v36.72c0,13,11.86,18.93,26.68,18.93v32.16c-34.44,0-59.07-20.3-59.07-50.17v-37.63h-17.33v-29.88h17.33v-15.05l32.39-23.49v38.54h27.37v29.88h-27.37Z"/>
            <path d="M784.29,104.05v-8.62l32.39-23.49v32.11h-32.39Z"/>
            <path d="M556.51,110.73v115.17h0v2.5h-32.15v-10.71c-6.61,7.29-21.21,10.72-32.16,10.72-30.33,0-51.77-26-51.77-57.7v-59.98h32.39v57.25c0,16.65,10.72,28.28,23.72,28.28,14.37,0,27.82-7.07,27.82-28.28v-57.25h32.16Z"/>
            <path d="M637.69,111.19v33.52c-3.19-1.14-6.61-1.6-10.26-1.6-12.55,0-23.26,9.35-23.26,27.82v57.47h-32.39V110.73h32.39v10.49c7.07-7.53,16.65-10.49,25.54-10.49,2.74,0,5.02,0,7.98,.46Z"/>
            <rect x="784.29" y="110.73" width="32.39" height="117.68"/>
            <polygon points="901.89 169.57 937.57 228.41 903.28 228.41 884.77 197.81 866.22 228.41 832.08 228.41 867.68 169.57 832.08 110.73 866.22 110.73 884.77 141.33 903.28 110.73 937.57 110.73 901.89 169.57"/>
        </g>
    </g>
    <path d="M300.6,150.3c0,49.97-24.39,94.25-61.92,121.58V90.59L61.91,218.81v53.07C24.39,244.55,0,200.27,0,150.3,0,67.29,67.29,0,150.3,0s150.3,67.29,150.3,150.3Z"/>
</svg>