<svg xmlns="http://www.w3.org/2000/svg" viewBox="0 0 4039.72 1860" fill="none">
    <g>
        <path d="M1201.42,984.06l-153.09-280.82h116.33l90.25,184.54l90.25-184.54h116.33l-152.42,280.82l0,171.84h-107.64         V984.06z"/>
        <path d="M1744.58,980.11c0.01-1.15,0.03-2.29,0.03-3.45h-0.09c-1.23-52.85-16.69-94.5-46.41-124.93         c-31.01-31.76-74.17-47.63-129.49-47.63c-55.32,0-98.48,15.88-129.48,47.63c-29.72,30.43-45.18,72.08-46.41,124.93h-0.09         c0,1.16,0.02,2.3,0.03,3.45c-0.01,1.15-0.03,2.29-0.03,3.45h0.09c1.23,52.85,16.69,94.5,46.41,124.93         c31,31.76,74.16,47.63,129.48,47.63c55.31,0,98.47-15.88,129.49-47.63c29.72-30.43,45.18-72.08,46.41-124.93h0.09         C1744.61,982.4,1744.59,981.26,1744.58,980.11z M1568.62,1083.65c-25.42,0-45.28-9.43-59.56-28.3         c-13.86-18.31-20.96-43.58-21.37-75.78c0.55-31.3,7.67-51.56,21.37-69.66c14.28-18.87,34.13-28.3,59.55-28.3         c25.43,0,45.28,9.43,59.56,28.3c13.69,18.1,20.81,38.36,21.37,69.66c-0.41,32.2-7.52,57.47-21.37,75.78         C1613.89,1074.22,1594.04,1083.65,1568.62,1083.65z"/>
        <path d="M1794.77,895.07c0-39.05-1.93-73.96-3.27-90.97h90.33c1.78,17.92,3.94,45.03,3.94,67.54v6.89h2.68             c8.47-22.51,23.75-40.54,45.84-54.09c22.08-13.55,47.4-20.33,75.95-20.33c5.79,0,12.71,0.69,20.74,2.07v76.49             c-0.9-0.46-5.35-0.69-13.38-0.69c-22.75,0-43.95,5.98-63.57,17.92c-19.63,11.95-35.25,27.8-46.84,47.55             c-11.6,19.76-17.4,41.12-17.4,64.09v144.03h-95.02V895.07z"/>
        <path d="M2110.72,1116.31c-19.63-26.43-29.44-68.87-29.44-120.82v-191.4h95.03v192.07c0,27.34,4.23,50.41,12.71,62.72         c8.47,12.3,21.85,18.46,40.15,18.46c21.85,0,39.81-8.65,53.87-25.97c14.05-17.31,21.08-41.98,21.08-67.5V804.09h95.02v250.18         c0,24.61,3.35,65.39,6.92,101.84h-91.01c-3.57-24.61-6.92-54.67-6.92-69.71h-1.34c-7.59,20.06-21.31,39.37-41.15,51.44         c-19.86,12.07-42.5,18.12-67.92,18.12C2159.34,1155.96,2130.35,1142.74,2110.72,1116.31z"/>
        <path d="M2580.87,1142.58c-17.62-8.91-31.57-20.49-41.82-34.76l-1.34,6.66c0,20.95-0.23,34.76-0.67,41.45h-89.67         c1.34-12.04,2-42.12,2-90.26l0-362.43h95.03l0.77,138.04h1.34c17.4-24.96,49.07-37.44,95.02-37.44         c42.82,0,76.29,14.82,100.38,44.46c24.09,29.65,36.14,70.99,36.14,124.03c0,56.16-13.27,104.52-38.25,136.16         c-24.99,31.66-59.56,47.48-103.72,47.48C2616.89,1155.96,2598.49,1151.49,2580.87,1142.58z M2666.19,1056.66         c11.14-18.05,17.5-41.13,17.5-75.46c0-32.53-5.59-57.27-16.73-74.22c-11.16-16.94-27.67-25.41-49.52-25.41         c-20.07,0-37.14,6.47-51.19,19.39c-14.06,12.93-21.08,28.53-21.08,46.8l-0.77,68.44c0,20.51,6.57,36.89,19.74,49.14         c13.15,12.26,30.67,18.39,52.53,18.39C2638.52,1083.74,2655.03,1074.71,2666.19,1056.66z"/>
        <path d="M2876.21,1141.25c-17.4-9.67-31.01-22.91-40.82-39.72c-9.82-16.81-14.72-35.81-14.72-56.99         c0-35.46,13.82-55.43,41.49-74.32c27.65-18.88,67.35-28.33,119.11-28.33h46.84v-13.82c0-15.65-4.91-27.86-14.72-36.61         c-9.82-8.74-23.2-10.12-40.15-10.12c-20.08,0-39.38,3.46-57.89,10.37c-18.51,6.9-33.79,13.34-45.84,25.31l-40.82-55.95         c19.18-17.5,41.82-31.44,67.92-41.8c26.09-10.36,52.53-15.54,79.3-15.54c45.5,0,81.41,10.94,107.73,32.82         c26.32,21.88,39.48,44.5,39.48,82.26v155.44c0,11.05,0.89,31.08,2.68,46.27c1.78,15.2,3.78,26.94,6.02,35.23h-84.98         c-2.68-6.45-4.69-12.2-6.02-17.27c-1.34-5.06-2.45-19.09-3.35-28.31h-1.34c-24.98,30.39-58.66,45.6-101.04,45.6         C2913.23,1155.76,2893.6,1150.92,2876.21,1141.25z M3009.04,1067.67c12.71-10.37,19.07-23.6,19.07-39.72v-29.02h-49.52         c-20.97,0-37.04,3.92-48.18,11.75c-11.15,7.83-16.73,19.12-16.73,33.85c0,12.44,4.02,22,12.05,28.67         c8.03,6.68,19.63,10.02,34.8,10.02C2980.15,1083.22,2996.32,1078.03,3009.04,1067.67z"/>
        <path d="M3220.9,1137.12c-22.75-12.44-38.59-29.02-47.51-49.75l58.89-41.45c8.03,11.52,18.07,20.62,30.11,27.29         c12.04,6.68,24.31,10.02,36.8,10.02c13.82,0,25.2-3.46,34.13-10.37c8.92-6.91,13.38-15.65,13.38-26.25         c0-5.52-1.24-10.01-3.68-13.47c-2.45-3.46-7.25-7.02-14.38-10.71c-7.14-3.68-18.52-8.74-34.13-15.2         c-41.94-17.04-71.26-26.77-87.99-43.58c-16.73-16.81-25.09-37.66-25.09-62.52c0-29.47,11.59-53.09,34.79-70.82         c23.2-17.73,53.98-26.6,92.35-26.6c26.32,0,49.85,4.96,70.59,14.85c20.74,9.91,37.81,24.3,51.19,43.18l-54.87,47.18         c-15.17-18.42-35.91-27.64-62.24-27.64c-12.05,0-21.31,2.07-27.77,6.22c-6.47,4.14-9.7,9.91-9.7,17.27c0,7.96,6.89,13,20.41,20.18         c8.25,4.39,22.19,10.49,41.82,18.31c27.65,11.06,48.85,14.46,63.57,24.59c14.72,10.13,25.09,20.84,31.11,32.13         c6.02,11.29,9.03,25.21,9.03,41.8c0,22.57-5.92,42.49-17.73,59.76c-11.82,17.27-28.44,30.63-49.85,40.07         c-21.42,9.43-45.96,14.16-73.61,14.16C3270.19,1155.77,3243.65,1149.56,3220.9,1137.12z"/>
        <path d="M3642.55,804.63v-72.32l92.34-28.35h2.68v100.67l99.58-0.02l0,77.65l-99.58,0.02l0,152.43         c0,17.83,4.45,30.88,13.38,39.12c8.91,8.25,22.75,12.37,41.49,12.37c13.37,0,44.79-4.89,44.79-4.89l0.02,65.96         c0,0-51.43,9.13-80.94,9.13c-36.14,0-64.13-9.36-83.98-28.09c-19.86-18.72-29.78-45.01-29.78-78.9l0-194.47"/>
        <g>
            <path d="M3491.84,853.56h100.63l0,302.84h-100.63L3491.84,853.56z"/>
            <path d="M3505.14,789.95c-8.87-8.85-13.29-21.09-13.29-36.73c0-15.64,4.43-27.89,13.29-36.73             c8.86-8.85,21.2-13.27,37.02-13.27c15.81,0,28.15,4.42,37.02,13.27c8.86,8.85,13.29,21.09,13.29,36.73             c0,15.64-4.43,27.89-13.29,36.73c-8.87,8.85-21.21,13.27-37.02,13.27C3526.34,803.22,3514,798.8,3505.14,789.95z"/>
        </g>
        <g>
            <path d="M3887.45,853.93h100.63l0,302.84h-100.63L3887.45,853.93z"/>
            <path d="M3900.74,790.32c-8.87-8.85-13.29-21.09-13.29-36.73c0-15.64,4.43-27.89,13.29-36.73             c8.86-8.85,21.2-13.27,37.02-13.27c15.81,0,28.15,4.42,37.02,13.27c8.86,8.85,13.29,21.09,13.29,36.73             c0,15.64-4.43,27.89-13.29,36.73c-8.87,8.85-21.21,13.27-37.02,13.27C3921.94,803.59,3909.6,799.17,3900.74,790.32z"/>
        </g>
    </g>
    <g>
        <path d="M481.34,1610.34c-78.98,0-143.23-64.25-143.23-143.23c0-78.98,64.25-143.23,143.23-143.23         c78.98,0,143.23,64.25,143.23,143.23C624.56,1546.09,560.31,1610.34,481.34,1610.34z"/>
        <path d="M911.01,249.67l-286.46,0c0,330.15,9.78,923.79-143.14,930.9c-153.11-6.66-143.32-600.63-143.32-930.91         l-286.46,0c0,558.16,166.41,996.53,426.98,1002.53v0.08c0.97,0,1.94-0.03,2.92-0.04c0.83,0.01,1.66,0.03,2.5,0.03v-0.07         C744.6,1246.2,911.01,807.83,911.01,249.67z"/>
    </g>
</svg>